<svg xmlns="http://www.w3.org/2000/svg" version="1.1" xmlns:xlink="http://www.w3.org/1999/xlink" width="2.7194000000000003in" height="1.38325in" viewBox="72.25000000000001 3.450000000000003 2719.4 1383.25" stroke-linecap="round" stroke-linejoin="round" stroke-width="0" stroke="#000"><defs><rect x="-29.55" y="-35.45" width="59.1" height="70.9" id="tool-D25-pad-1051"/><rect x="-39.35" y="-59.05" width="78.7" height="118.1" rx="39.35" ry="39.35" id="tool-D29-pad-1052"/><circle cx="0" cy="0" r="59.05" id="tool-D30-pad-1053"/><rect x="-39.35" y="-49.2" width="78.7" height="98.4" rx="39.35" ry="39.35" id="tool-D31-pad-1054"/><circle cx="0" cy="0" r="39.35" id="tool-D32-pad-1055"/><rect x="-33.45" y="-49.2" width="66.9" height="98.4" id="tool-D33-pad-1056"/><rect x="-35.45" y="-21.65" width="70.9" height="43.3" id="tool-D35-pad-1057"/><rect x="-37.4" y="-29.55" width="74.8" height="59.1" id="tool-D36-pad-1058"/><rect x="-19.7" y="-23.6" width="39.4" height="47.2" id="tool-D38-pad-1059"/><rect x="-29.55" y="-19.7" width="59.1" height="39.4" id="tool-D23-pad-1049"/><rect x="-57.1" y="-34.45" width="114.2" height="68.9" id="tool-D39-pad-1060"/><rect x="-39.35" y="-39.35" width="78.7" height="78.7" id="tool-D40-pad-1061"/><rect x="-19.7" y="-29.55" width="39.4" height="59.1" id="tool-D24-pad-1050"/><rect x="-29.55" y="-37.4" width="59.1" height="74.8" id="tool-D42-pad-1062"/><rect x="-41.35" y="-33.45" width="82.7" height="66.9" id="tool-D45-pad-1063"/><circle cx="0" cy="0" r="5.9" id="tool-D46-pad-1064"/><mask id="gerber-mask_1065" color="#000"><rect x="72.25000000000001" y="3.450000000000003" width="2719.4" height="1383.25" fill="#fff"/><use x="818.8" y="1025.1" xlink:href="#tool-D46-pad-1064"/><use x="900.1" y="1025.1" xlink:href="#tool-D46-pad-1064"/><use x="981.4" y="1025.1" xlink:href="#tool-D46-pad-1064"/><use x="675" y="956.2" xlink:href="#tool-D46-pad-1064"/><use x="131.3" y="956.2" xlink:href="#tool-D46-pad-1064"/><use x="256.3" y="956.2" xlink:href="#tool-D46-pad-1064"/><use x="550" y="956.2" xlink:href="#tool-D46-pad-1064"/><use x="675" y="62.5" xlink:href="#tool-D46-pad-1064"/><use x="131.3" y="62.5" xlink:href="#tool-D46-pad-1064"/><use x="825" y="750" xlink:href="#tool-D46-pad-1064"/><use x="925" y="750" xlink:href="#tool-D46-pad-1064"/><use x="1025" y="750" xlink:href="#tool-D46-pad-1064"/><use x="1125" y="750" xlink:href="#tool-D46-pad-1064"/><use x="1225" y="750" xlink:href="#tool-D46-pad-1064"/><use x="1325" y="750" xlink:href="#tool-D46-pad-1064"/><use x="1975" y="1175" xlink:href="#tool-D46-pad-1064"/><use x="2075" y="1175" xlink:href="#tool-D46-pad-1064"/><use x="2175" y="1175" xlink:href="#tool-D46-pad-1064"/><use x="2275" y="1175" xlink:href="#tool-D46-pad-1064"/><use x="2375" y="1175" xlink:href="#tool-D46-pad-1064"/><use x="2475" y="1175" xlink:href="#tool-D46-pad-1064"/><use x="1468.9" y="518.8" xlink:href="#tool-D46-pad-1064"/><use x="1468.9" y="418.8" xlink:href="#tool-D46-pad-1064"/><use x="2394" y="62.5" xlink:href="#tool-D46-pad-1064"/><use x="1606.3" y="1250" xlink:href="#tool-D46-pad-1064"/><use x="1468.9" y="831.3" xlink:href="#tool-D46-pad-1064"/><use x="2650" y="187.5" xlink:href="#tool-D46-pad-1064"/><use x="2650" y="62.5" xlink:href="#tool-D46-pad-1064"/><use x="2650" y="768.8" xlink:href="#tool-D46-pad-1064"/><use x="2650" y="868.8" xlink:href="#tool-D46-pad-1064"/><use x="2650" y="968.8" xlink:href="#tool-D46-pad-1064"/><use x="2650" y="1068.8" xlink:href="#tool-D46-pad-1064"/><use x="2394" y="200" xlink:href="#tool-D46-pad-1064"/><use x="1718.9" y="1250.1" xlink:href="#tool-D46-pad-1064"/></mask></defs><g mask="url(#gerber-mask_1065)" fill="currentColor" stroke="currentColor" transform="translate(0,1390.15) scale(1,-1)"><path stroke-width="19.7" fill="none" d="M 2394 200 L 2462.8 200 L 2537.8 125 L 2706.3 125 L 2731.3 150 L 2731.3 293.8 M 1575 831.2 L 1469 831.2 L 1468.9 831.3 M 675 956.2 L 675 1118.7 M 1225 750 L 1225 806.5 L 1175.1 856.3 L 1087.4 856.3 M 2650 187.5 L 2568.5 187.5 L 2487.2 268.8 L 2281.3 268.8 L 2176.7 268.8 L 2156.3 248.3 L 2156.3 268.7 L 1856.2 268.7 L 1793.8 268.7 L 1731.2 331.3 L 1670.4 331.3 L 1650 310.8 M 1775 218.5 L 1793.8 218.5 L 1793.8 268.7 M 1875 218.7 L 1875 225 L 1781.4 225 L 1775 218.5 M 1875 218.7 L 1856.2 218.7 L 1856.2 268.7 M 2281.1 206 L 2281.3 268.8 M 1756.1 750 L 1756.1 712.2 L 1731.4 687.6 L 1506.4 687.6 L 1337.6 856.3 L 1274.9 856.3 L 1225 806.5 M 1975 1175"/><path stroke-width="43.3" fill="none" d="M 1975 1175 L 1975 1337.5 M 2650 187.5"/><path stroke-width="19.7" fill="none" d="M 2650 187.5 L 2650 606 L 2706.5 662.6 L 2750.1 662.6 L 2731.3 643.8 M 2650 868.8"/><path stroke-width="39.4" fill="none" d="M 2650 868.8 L 2650.1 868.8 L 2750.3 868.8 M 2075 1175"/><path stroke-width="43.3" fill="none" d="M 2075 1175 L 2075 1337.5 M 2394 62.5"/><path stroke-width="19.7" fill="none" d="M 2394 62.5 L 2394 50 L 2149.8 50 L 1874.8 50 L 1537.5 50 L 1168.8 418.8 L 1037.5 418.8 L 893.8 562.5 L 712.5 562.5 L 568.7 706.3 L 437.5 706.3 L 337.3 806.4 L 337.3 1174.8 L 418.8 1256.3 L 668.6 1256.3 L 668.6 1254 L 675 1254 M 1875 100.6 L 1874.8 50 M 2394 50 L 2281.1 50 L 2281.1 118.7 M 2156.3 87.5 L 2156.3 56.5 L 2149.8 50 M 675 1254 L 675 1250 L 737.5 1250 L 812.5 1175 L 1006.2 1175 L 1137.5 1306.2 L 1412.5 1306.2 L 1549.9 1168.9 L 1681.4 1168.9 L 1718.9 1206.4 L 1718.9 1250.1 M 2650 768.8"/><path stroke-width="39.4" fill="none" d="M 2650 768.8 L 2650.1 768.8 L 2750.3 768.8 M 1125 750"/><path stroke-width="19.7" fill="none" d="M 1125 750 L 1125 706.2 L 1193.7 637.6 L 1912.7 637.6 L 2375 1099.9 L 2375 1175 M 2175 1175"/><path stroke-width="43.3" fill="none" d="M 2175 1175 L 2175 1337.5 M 2275 1175 L 2275 1337.5 M 925 750"/><path stroke-width="19.7" fill="none" d="M 925 750 L 925 768.8 M 925 750 L 925 843.9 L 912.6 856.3 M 1025 750 L 1025 681.3 L 1118.7 587.6 L 1925.2 587.6 L 2475 1137.4 L 2475 1175 M 193.8 1118.8 L 168.8 1118.8 L 168.8 1137.6 L 356.1 1325 L 762.5 1325 L 837.5 1250 L 1012.5 1250 L 1112.5 1350 L 1437.5 1350 L 1537.5 1250 L 1606.3 1250 M 1468.9 518.8 L 1918.8 518.8 L 2556.2 1156.2 L 2556.2 1192.8 L 2556.2 1219.1 L 2525.4 1250 L 2412.9 1250 L 2375 1287.9 L 2375 1337.5 M 2556.2 1192.8 L 2574.2 1192.8 L 2575.3 1193.9 M 1468.9 418.8 L 1881.3 418.8 L 2618.8 1156.3 L 2618.8 1269.2 L 2587.8 1300.1 L 2475 1300.1 L 2475 1337.5 M 2618.8 1269.2 L 2750.3 1268.8 M 1718.8 1081.2"/><path stroke-width="35.4" fill="none" d="M 1718.8 1081.2 L 1718.8 1093.8 L 1831.2 1093.8 M 1718.8 1081.2"/><path stroke-width="19.7" fill="none" d="M 1718.8 1081.2 L 1687.5 1112.5 L 1537.5 1112.5 L 1387.5 1262.5 L 1162.5 1262.5 L 925.1 1025.1 L 900.1 1025.1 L 900.1 1093.7 L 881.2 1112.5 L 800 1112.5 L 725 1187.5 L 443.7 1187.5 L 393.8 1137.6 L 393.8 875 L 487.5 781.2 L 612.5 781.2 L 743.8 650 L 937.5 650 L 1081.2 506.3 L 1206.2 506.3 L 1587.5 125 L 1650 125 L 1650 150 M 1650 125 L 1781.2 125 L 1775 131.2 M 1945.9 159.7 L 1803.4 159.7 L 1768.7 125 L 1768.7 131.2 L 1775 131.2 M 1945.9 159.7 L 1945.9 162.5 L 2331.2 162.5 L 2362.5 131.3 L 2437.5 131.3 L 2506.2 62.5 L 2650 62.5 M 1681.2 750 L 1575 750 L 1575 743.9 M 1718.7 840.6 L 1718.7 968.7 L 1718.8 968.7"/><path stroke-width="35.4" fill="none" d="M 1718.8 968.7 L 1718.8 956.4 L 1833.4 956.4"/><path stroke-width="19.7" fill="none" d="M 1833.4 956.4 L 1831.2 958.5 M 543.8 1118.8 L 456.2 1031.2 L 456.2 912.5 L 512.4 856.3 L 825.3 856.3 L 825.3 875.3 L 868.8 918.8 L 956.4 918.8 L 1000.1 875.1 L 1000.1 856.3 M 2650 968.8"/><path stroke-width="39.4" fill="none" d="M 2650 968.8 L 2650.1 968.8 L 2750.3 968.8 M 2650 1068.8 L 2650.1 1068.8 L 2750.3 1068.8 M 2662.6 1193.9"/><path stroke-width="31.5" fill="none" d="M 2662.6 1193.9 L 2662.6 1181.4 L 2737.7 1181.4"/><path stroke-width="19.7" fill="none" d="M 2737.7 1181.4 L 2750.3 1168.8"/><use x="818.8" y="1025.1" xlink:href="#tool-D25-pad-1051"/><use x="900.1" y="1025.1" xlink:href="#tool-D25-pad-1051"/><use x="981.4" y="1025.1" xlink:href="#tool-D25-pad-1051"/><use x="675" y="956.2" xlink:href="#tool-D29-pad-1052"/><use x="131.3" y="956.2" xlink:href="#tool-D29-pad-1052"/><use x="256.3" y="956.2" xlink:href="#tool-D29-pad-1052"/><use x="550" y="956.2" xlink:href="#tool-D29-pad-1052"/><use x="675" y="62.5" xlink:href="#tool-D30-pad-1053"/><use x="131.3" y="62.5" xlink:href="#tool-D30-pad-1053"/><use x="825" y="750" xlink:href="#tool-D31-pad-1054"/><use x="925" y="750" xlink:href="#tool-D31-pad-1054"/><use x="1025" y="750" xlink:href="#tool-D31-pad-1054"/><use x="1125" y="750" xlink:href="#tool-D31-pad-1054"/><use x="1225" y="750" xlink:href="#tool-D31-pad-1054"/><use x="1325" y="750" xlink:href="#tool-D31-pad-1054"/><use x="1975" y="1175" xlink:href="#tool-D32-pad-1055"/><use x="2075" y="1175" xlink:href="#tool-D32-pad-1055"/><use x="2175" y="1175" xlink:href="#tool-D32-pad-1055"/><use x="2275" y="1175" xlink:href="#tool-D32-pad-1055"/><use x="1975" y="1337.5" xlink:href="#tool-D33-pad-1056"/><use x="2075" y="1337.5" xlink:href="#tool-D33-pad-1056"/><use x="2175" y="1337.5" xlink:href="#tool-D33-pad-1056"/><use x="2275" y="1337.5" xlink:href="#tool-D33-pad-1056"/><use x="2375" y="1337.5" xlink:href="#tool-D33-pad-1056"/><use x="2475" y="1337.5" xlink:href="#tool-D33-pad-1056"/><use x="2375" y="1175" xlink:href="#tool-D32-pad-1055"/><use x="2475" y="1175" xlink:href="#tool-D32-pad-1055"/><use x="1468.9" y="518.8" xlink:href="#tool-D32-pad-1055"/><use x="1468.9" y="418.8" xlink:href="#tool-D32-pad-1055"/><use x="2394" y="62.5" xlink:href="#tool-D32-pad-1055"/><use x="675" y="1118.7" xlink:href="#tool-D35-pad-1057"/><use x="675" y="1254" xlink:href="#tool-D35-pad-1057"/><use x="193.8" y="1118.8" xlink:href="#tool-D36-pad-1058"/><use x="543.8" y="1118.8" xlink:href="#tool-D36-pad-1058"/><use x="1606.3" y="1250" xlink:href="#tool-D32-pad-1055"/><use x="1681.2" y="750" xlink:href="#tool-D38-pad-1059"/><use x="1756.1" y="750" xlink:href="#tool-D38-pad-1059"/><use x="1718.7" y="840.6" xlink:href="#tool-D38-pad-1059"/><use x="1575" y="831.2" xlink:href="#tool-D23-pad-1049"/><use x="1575" y="743.9" xlink:href="#tool-D23-pad-1049"/><use x="1875" y="218.7" xlink:href="#tool-D23-pad-1049"/><path d="M 1845.5 140 L 1912.4 140 L 1936 116.4 L 2022.6 116.4 L 2046.3 140 L 2046.3 179.4 L 2022.6 203 L 1936 203 L 1912.4 179.4 L 1845.5 179.4 L 1845.5 140 Z"/><use x="1875" y="100.6" xlink:href="#tool-D23-pad-1049"/><use x="2156.3" y="87.5" xlink:href="#tool-D39-pad-1060"/><use x="2156.3" y="248.3" xlink:href="#tool-D39-pad-1060"/><use x="1650" y="150" xlink:href="#tool-D39-pad-1060"/><use x="1650" y="310.8" xlink:href="#tool-D39-pad-1060"/><use x="1718.8" y="968.7" xlink:href="#tool-D40-pad-1061"/><use x="1718.8" y="1081.2" xlink:href="#tool-D40-pad-1061"/><use x="1468.9" y="831.3" xlink:href="#tool-D32-pad-1055"/><use x="1831.2" y="1093.8" xlink:href="#tool-D35-pad-1057"/><use x="1831.2" y="958.5" xlink:href="#tool-D35-pad-1057"/><use x="1000.1" y="856.3" xlink:href="#tool-D24-pad-1050"/><use x="1087.4" y="856.3" xlink:href="#tool-D24-pad-1050"/><use x="912.6" y="856.3" xlink:href="#tool-D24-pad-1050"/><use x="825.3" y="856.3" xlink:href="#tool-D24-pad-1050"/><use x="2650" y="187.5" xlink:href="#tool-D32-pad-1055"/><use x="1775" y="131.2" xlink:href="#tool-D23-pad-1049"/><use x="1775" y="218.5" xlink:href="#tool-D23-pad-1049"/><use x="2281.1" y="118.7" xlink:href="#tool-D23-pad-1049"/><use x="2281.1" y="206" xlink:href="#tool-D23-pad-1049"/><use x="2650" y="62.5" xlink:href="#tool-D32-pad-1055"/><use x="2650" y="768.8" xlink:href="#tool-D32-pad-1055"/><use x="2650" y="868.8" xlink:href="#tool-D32-pad-1055"/><use x="2650" y="968.8" xlink:href="#tool-D32-pad-1055"/><use x="2650" y="1068.8" xlink:href="#tool-D32-pad-1055"/><use x="2394" y="200" xlink:href="#tool-D32-pad-1055"/><use x="2731.3" y="643.8" xlink:href="#tool-D42-pad-1062"/><use x="2731.3" y="293.8" xlink:href="#tool-D42-pad-1062"/><use x="1718.9" y="1250.1" xlink:href="#tool-D32-pad-1055"/><use x="2750.3" y="768.8" xlink:href="#tool-D45-pad-1063"/><use x="2750.3" y="868.8" xlink:href="#tool-D45-pad-1063"/><use x="2750.3" y="968.8" xlink:href="#tool-D45-pad-1063"/><use x="2750.3" y="1068.8" xlink:href="#tool-D45-pad-1063"/><use x="2750.3" y="1168.8" xlink:href="#tool-D45-pad-1063"/><use x="2750.3" y="1268.8" xlink:href="#tool-D45-pad-1063"/><use x="2575.3" y="1193.9" xlink:href="#tool-D24-pad-1050"/><use x="2662.6" y="1193.9" xlink:href="#tool-D24-pad-1050"/><path d="M 868.8 1125 L 1012.5 1125 L 1012.5 962.5 L 868.8 962.5 L 868.8 1125 Z"/><path d="M 137.5 837.5 L 262.5 837.5 L 262.5 712.5 L 137.5 712.5 L 137.5 837.5 Z"/><path d="M 137.5 650 L 262.5 650 L 262.5 525 L 137.5 525 L 137.5 650 Z"/><path d="M 137.5 462.5 L 262.5 462.5 L 262.5 337.5 L 137.5 337.5 L 137.5 462.5 Z"/><path d="M 137.5 275 L 262.5 275 L 262.5 150 L 137.5 150 L 137.5 275 Z"/><path d="M 325 650 L 450 650 L 450 525 L 325 525 L 325 650 Z"/><path d="M 325 462.5 L 450 462.5 L 450 337.5 L 325 337.5 L 325 462.5 Z"/><path d="M 325 275 L 450 275 L 450 150 L 325 150 L 325 275 Z"/><path d="M 512.5 462.5 L 637.5 462.5 L 637.5 337.5 L 512.5 337.5 L 512.5 462.5 Z"/><path d="M 512.5 275 L 637.5 275 L 637.5 150 L 512.5 150 L 512.5 275 Z"/><path d="M 812.5 350 L 937.5 350 L 937.5 225 L 812.5 225 L 812.5 350 Z"/><path d="M 812.5 162.5 L 937.5 162.5 L 937.5 37.5 L 812.5 37.5 L 812.5 162.5 Z"/><path d="M 1000 350 L 1125 350 L 1125 225 L 1000 225 L 1000 350 Z"/><path d="M 1000 162.5 L 1125 162.5 L 1125 37.5 L 1000 37.5 L 1000 162.5 Z"/><path d="M 1187.5 162.5 L 1312.5 162.5 L 1312.5 37.5 L 1187.5 37.5 L 1187.5 162.5 Z"/><path d="M 1950.2 431.3 L 2075.2 431.3 L 2075.2 306.3 L 1950.2 306.3 L 1950.2 431.3 Z"/><path d="M 1950.2 1106.4 L 2075.2 1106.4 L 2075.2 981.4 L 1950.2 981.4 L 1950.2 1106.4 Z"/><path d="M 1800.2 262.5 L 1850.2 262.5 L 1850.2 231.3 L 1800.2 231.3 L 1800.2 262.5 Z"/></g></svg>