<svg xmlns="http://www.w3.org/2000/svg" version="1.1" xmlns:xlink="http://www.w3.org/1999/xlink" width="2.72835in" height="1.3852in" viewBox="-2800.6 3.450000000000003 2728.35 1385.2" stroke-linecap="round" stroke-linejoin="round" stroke-width="0" stroke="#000"><defs><circle cx="0" cy="0" r="9.85" id="tool-D13-pad-1066"/><rect x="-29.55" y="-19.7" width="59.1" height="39.4" id="tool-D23-pad-1074"/><rect x="-19.7" y="-29.55" width="39.4" height="59.1" id="tool-D24-pad-1075"/><rect x="-29.55" y="-35.45" width="59.1" height="70.9" id="tool-D25-pad-1076"/><rect x="-35.45" y="-25.6" width="70.9" height="51.2" id="tool-D26-pad-1077"/><rect x="-25.6" y="-35.45" width="51.2" height="70.9" id="tool-D27-pad-1078"/><rect x="-21.65" y="-35.45" width="43.3" height="70.9" id="tool-D28-pad-1079"/><rect x="-39.35" y="-59.05" width="78.7" height="118.1" rx="39.35" ry="39.35" id="tool-D29-pad-1080"/><circle cx="0" cy="0" r="59.05" id="tool-D30-pad-1081"/><rect x="-39.35" y="-49.2" width="78.7" height="98.4" rx="39.35" ry="39.35" id="tool-D31-pad-1082"/><circle cx="0" cy="0" r="39.35" id="tool-D32-pad-1083"/><rect x="-43.7" y="-43.7" width="87.4" height="87.4" id="tool-D34-pad-1084"/><rect x="-17.7" y="-29.55" width="35.4" height="59.1" id="tool-D41-pad-1087"/><rect x="-35.45" y="-21.65" width="70.9" height="43.3" id="tool-D35-pad-1085"/><rect x="-35.45" y="-15.75" width="70.9" height="31.5" id="tool-D43-pad-1088"/><rect x="-29.55" y="-15.75" width="59.1" height="31.5" id="tool-D44-pad-1089"/><circle cx="0" cy="0" r="5.9" id="tool-D46-pad-1090"/><mask id="gerber-mask_1094" color="#000"><rect x="-2800.6" y="3.450000000000003" width="2728.35" height="1385.2" fill="#fff"/><use x="-818.8" y="1025.1" xlink:href="#tool-D46-pad-1090"/><use x="-900.1" y="1025.1" xlink:href="#tool-D46-pad-1090"/><use x="-981.4" y="1025.1" xlink:href="#tool-D46-pad-1090"/><use x="-675" y="956.2" xlink:href="#tool-D46-pad-1090"/><use x="-131.3" y="956.2" xlink:href="#tool-D46-pad-1090"/><use x="-256.3" y="956.2" xlink:href="#tool-D46-pad-1090"/><use x="-550" y="956.2" xlink:href="#tool-D46-pad-1090"/><use x="-675" y="62.5" xlink:href="#tool-D46-pad-1090"/><use x="-131.3" y="62.5" xlink:href="#tool-D46-pad-1090"/><use x="-825" y="750" xlink:href="#tool-D46-pad-1090"/><use x="-925" y="750" xlink:href="#tool-D46-pad-1090"/><use x="-1025" y="750" xlink:href="#tool-D46-pad-1090"/><use x="-1125" y="750" xlink:href="#tool-D46-pad-1090"/><use x="-1225" y="750" xlink:href="#tool-D46-pad-1090"/><use x="-1325" y="750" xlink:href="#tool-D46-pad-1090"/><use x="-1975" y="1175" xlink:href="#tool-D46-pad-1090"/><use x="-2075" y="1175" xlink:href="#tool-D46-pad-1090"/><use x="-2175" y="1175" xlink:href="#tool-D46-pad-1090"/><use x="-2275" y="1175" xlink:href="#tool-D46-pad-1090"/><use x="-2375" y="1175" xlink:href="#tool-D46-pad-1090"/><use x="-2475" y="1175" xlink:href="#tool-D46-pad-1090"/><use x="-1468.9" y="518.8" xlink:href="#tool-D46-pad-1090"/><use x="-1468.9" y="418.8" xlink:href="#tool-D46-pad-1090"/><use x="-2394" y="62.5" xlink:href="#tool-D46-pad-1090"/><use x="-1606.3" y="1250" xlink:href="#tool-D46-pad-1090"/><use x="-1468.9" y="831.3" xlink:href="#tool-D46-pad-1090"/><use x="-2650" y="187.5" xlink:href="#tool-D46-pad-1090"/><use x="-2650" y="62.5" xlink:href="#tool-D46-pad-1090"/><use x="-2650" y="768.8" xlink:href="#tool-D46-pad-1090"/><use x="-2650" y="868.8" xlink:href="#tool-D46-pad-1090"/><use x="-2650" y="968.8" xlink:href="#tool-D46-pad-1090"/><use x="-2650" y="1068.8" xlink:href="#tool-D46-pad-1090"/><use x="-2394" y="200" xlink:href="#tool-D46-pad-1090"/><use x="-1718.9" y="1250.1" xlink:href="#tool-D46-pad-1090"/></mask></defs><g mask="url(#gerber-mask_1094)" fill="currentColor" stroke="currentColor" transform="translate(0,1392.1000000000001) scale(1,-1)"><path stroke-width="19.7" fill="none" d="M -2075 175 L -2062.5 175"/><path stroke-width="23.6" fill="none" d="M -2062.5 175 L -2062.5 250 M -1969 87.7"/><path stroke-width="19.7" fill="none" d="M -1969 87.7 L -2012.5 131.3 L -2168.8 131.3 L -2212.5 175"/><path stroke-width="13" fill="none" d="M -2212.5 175 L -2218.7 175"/><path stroke-width="19.7" fill="none" d="M -2218.7 175 L -2225 175"/><path stroke-width="23.6" fill="none" d="M -2225 175 L -2225 250 M -2218.7 175"/><path stroke-width="19.7" fill="none" d="M -2218.7 175 L -2218.7 181.2 L -2387.5 181.2 L -2394 187.8 L -2394 200 M -1818.7 906.3 L -1818.7 1043.8 L -1774.8 1087.7 L -1718.8 1087.7 M -1818.7 906.3 L -1818.7 787.5 L -2137.5 468.7 L -2581.3 468.7 M -1900 906.2 L -1900 975.2 L -1893.8 981.4 M -1900 906.2 L -1900 837.5 L -2168.7 568.7 L -2581.3 568.7 M -1737.5 906.2 L -1737.5 987.5 L -1731.2 993.7 M -1737.5 906.2 L -1737.5 831.2 L -1687.5 781.2 L -1487.7 781.2 L -1468.9 800.1 L -1468.9 831.3 M -1656.2 906.2 L -1668.8 906.2 L -1643.9 931.1 L -1643.9 993.7 M -675 956.2"/><path stroke-width="39.4" fill="none" d="M -675 956.2 L -675 931.4"/><path stroke-width="43.3" fill="none" d="M -675 931.4 L -712.6 893.8 L -1225 893.8 L -1225 750 M -1643.9 993.7"/><path stroke-width="19.7" fill="none" d="M -1643.9 993.7 L -1643.9 1024.8 L -1512.5 1156.3 L -1512.5 1275 L -1606.4 1368.9 L -1971.3 1368.9 L -2050.2 1368.9"/><path stroke-width="15.7" fill="none" d="M -2050.2 1368.9 L -2069 1368.9 L -2106.5 1368.9"/><path stroke-width="19.7" fill="none" d="M -2106.5 1368.9 L -2175.4 1300 L -2575 1300 L -2606.1 1268.9 L -2675.5 1268.9 M -1225 750 L -1225 906.2 L -1656.2 906.2 M -2531.3 293.6 L -2650.2 293.6 L -2650.2 631.1 L -2543.8 737.5 L -2543.8 868.8 L -2543.8 1068.8 L -2606.1 1131.1 L -2606.1 1268.9 M -2650 868.8 L -2543.8 868.8 M -2650.2 293.6 L -2650.2 187.5 L -2650 187.5 M -2069 1368.9"/><path stroke-width="15.7" fill="none" d="M -2069 1368.9 L -2075.2 1372.9 M -1971.3 1368.9 L -1975.2 1372.9 M -1975 1175"/><path stroke-width="43.3" fill="none" d="M -1975 1175 L -1975 1237.4"/><path stroke-width="15.7" fill="none" d="M -1975 1237.4 L -1975.2 1237.6 M -1969 175"/><path stroke-width="19.7" fill="none" d="M -1969 175 L -1981.2 175"/><path stroke-width="23.6" fill="none" d="M -1981.2 175 L -1981.2 250 M -1718.8 1175"/><path stroke-width="19.7" fill="none" d="M -1718.8 1175 L -1718.8 1250 L -1731.3 1262.5 L -1825 1262.5 M -2037.7 1056.3 L -2037.7 1068.9"/><path stroke-width="31.5" fill="none" d="M -2037.7 1068.9 L -1981.5 1068.9"/><path stroke-width="19.7" fill="none" d="M -1981.5 1068.9 L -1981.5 1062.6 L -1893.9 1150.1 L -1893.9 1262.5 L -1825 1262.5 M -1893.9 1262.5 L -1893.9 1287.6 L -1925.2 1318.9 L -1970.2 1318.9"/><path stroke-width="15.7" fill="none" d="M -1970.2 1318.9 L -1975.2 1323.9"/><path stroke-width="19.7" fill="none" d="M -1975.2 1323.9 L -1975.2 1318.9 L -2075.2 1318.9 L -2075.2 1323.9 M -2075 1175"/><path stroke-width="43.3" fill="none" d="M -2075 1175 L -2075.2 1237.6 M -2394 62.5"/><path stroke-width="19.7" fill="none" d="M -2394 62.5 L -2394 81.3 L -2218.7 81.3 L -2218.7 87.7 M -2075 87.7 L -2218.7 87.7 M -2075 87.7 L -2075 75 L -2037.5 37.5 L -1868.9 37.5 L -1868.9 87.7 L -1875.2 87.7 L -1881.4 87.7 L -1881.4 37.5 L -1693.7 37.5 L -1651.2 80 L -1651.2 131.3 L -1651.2 226.2 L -1662.5 237.5 L -1662.5 250 L -1656.2 250 M -1556.3 131.4 L -1556.3 131.3 L -1651.2 131.3 M -2394 62.5"/><path stroke-width="15.7" fill="none" d="M -2394 62.5 L -2394 75.3"/><path stroke-width="19.7" fill="none" d="M -2394 75.3 L -2425 106.2 L -2587.5 106.2 L -2606.2 125 L -2700 125 L -2718.8 143.8 L -2718.8 262.5 L -2687.5 293.7 L -2687.5 700 L -2650 737.5"/><path stroke-width="15.7" fill="none" d="M -2650 737.5 L -2650 768.8 M -1718.8 1250"/><use x="-1718.8" y="1250" xlink:href="#tool-D13-pad-1066"/><path stroke-width="19.7" fill="none" d="M -2143.7 906.2 L -2150 906.2 L -2150 937.5 L -2206.2 993.7 L -2293.7 993.7 L -2375 1075 L -2375 1175 M -1981.2 906.2 L -1981.2 981.3 L -1981.5 981.6 M -2175 1175"/><path stroke-width="15.7" fill="none" d="M -2175 1175 L -2175 1143.6"/><path stroke-width="19.7" fill="none" d="M -2175 1143.6 L -2143.9 1112.5 L -2100 1112.5 L -2081.3 1093.8 L -2081.3 1012.5 L -2050.3 981.6 L -1981.5 981.6 M -2175 1175"/><path stroke-width="31.5" fill="none" d="M -2175 1175 L -2175 1199.9 L -2225.2 1250.1 L -2225.2 1256.6 M -2062.5 906.2"/><path stroke-width="19.7" fill="none" d="M -2062.5 906.2 L -2062.5 925 L -2125 987.5 L -2125 1056.3 L -2218.8 1056.3 L -2275 1112.5 L -2275 1175 L -2275 1212.4 L -2318.9 1256.3 L -2518.7 1256.3 L -2562.7 1212.3 L -2562.7 1181.2 M -2531.3 150"/><path stroke-width="35.4" fill="none" d="M -2531.3 150 L -2531.3 206.3"/><path stroke-width="19.7" fill="none" d="M -2531.3 206.3 L -2512.5 206.3 L -2381.2 337.5 L -2187.5 337.5 L -2143.7 293.7 L -2143.7 250 M -1325 750"/><path stroke-width="43.3" fill="none" d="M -1325 750 L -1325 699.9 L -1250.1 625.1 L -768.7 625.1 L -612.4 781.3 L -168.8 781.3 L -131.3 743.8 L -131.3 62.5 M -818.8 1025.1"/><path stroke-width="19.7" fill="none" d="M -818.8 1025.1 L -818.8 1112.5 L -693.7 1112.5 L -612.5 1031.3 L -612.5 887.5 L -575.1 850.1 L -187.5 850.1 L -131.3 906.3 L -131.3 956.2 M -256.3 956.2"/><path stroke-width="39.4" fill="none" d="M -256.3 956.2 L -262.5 956.2 L -262.5 981.4 L -150 1093.9 L -150 1218.9 L -225 1293.9 L -256.3 1293.9 M -550 956.2 L -550 1156.4 L -256.3 1156.4 M -2225 906.2"/><path stroke-width="19.7" fill="none" d="M -2225 906.2 L -2225 931.3 L -2393.8 931.3 L -2475 1012.5 L -2475 1175 M -2775 706.2 L -2787.5 706.2 L -2762.5 731.3 L -2762.5 1250 L -2762.8 1250.3 L -2762.8 1268.9 M -1825 1175.2 L -1825 1131.3 L -1643.7 1131.3 L -1606.3 1168.7 L -1606.3 1250 M -1893.8 1068.7 L -1893.8 1062.5 L -1825 1131.3 M -1818.7 250 L -1818.7 406.3 L -1706.2 518.8 L -1468.9 518.8 M -1818.7 250 L -1818.7 225 L -1750 156.2 L -1750 142.7 L -1738.5 131.3 M -1737.5 250 L -1737.5 356.3 L -1674.9 418.8 L -1468.9 418.8 M -1556.3 218.7 L -1556.3 300 L -1675 418.8 M -2581.3 368.7 L -2450 368.7 L -2412.5 406.3 L -1981.3 406.3 L -1900 325 L -1900 250 M -1875.2 175 L -1893.8 175"/><path stroke-width="23.6" fill="none" d="M -1893.8 175 L -1893.8 243.8"/><path stroke-width="19.7" fill="none" d="M -1893.8 243.8 L -1912.5 262.5 L -1912.5 250 L -1900 250 M -2650 62.5 L -2531.3 62.5 L -2531.3 62.7 M -2225.2 1343.9 L -2687.8 1343.9 L -2718.8 1312.9 L -2718.8 1006.1 L -2681.4 968.8 L -2650 968.8 M -2650 1181.2"/><path stroke-width="31.5" fill="none" d="M -2650 1181.2 L -2650 1068.8"/><use x="-2650" y="1068.8" xlink:href="#tool-D13-pad-1066"/><use x="-1718.8" y="1175" xlink:href="#tool-D23-pad-1074"/><use x="-1718.8" y="1087.7" xlink:href="#tool-D23-pad-1074"/><use x="-1893.8" y="1068.7" xlink:href="#tool-D23-pad-1074"/><use x="-1893.8" y="981.4" xlink:href="#tool-D23-pad-1074"/><use x="-2218.7" y="175" xlink:href="#tool-D23-pad-1074"/><use x="-2218.7" y="87.7" xlink:href="#tool-D23-pad-1074"/><use x="-2075" y="175" xlink:href="#tool-D23-pad-1074"/><use x="-2075" y="87.7" xlink:href="#tool-D23-pad-1074"/><use x="-1731.2" y="993.7" xlink:href="#tool-D24-pad-1075"/><use x="-1643.9" y="993.7" xlink:href="#tool-D24-pad-1075"/><use x="-1969" y="175" xlink:href="#tool-D23-pad-1074"/><use x="-1969" y="87.7" xlink:href="#tool-D23-pad-1074"/><use x="-818.8" y="1025.1" xlink:href="#tool-D25-pad-1076"/><use x="-900.1" y="1025.1" xlink:href="#tool-D25-pad-1076"/><use x="-981.4" y="1025.1" xlink:href="#tool-D25-pad-1076"/><use x="-2581.3" y="368.7" xlink:href="#tool-D26-pad-1077"/><use x="-2581.3" y="468.7" xlink:href="#tool-D26-pad-1077"/><use x="-2581.3" y="568.7" xlink:href="#tool-D26-pad-1077"/><use x="-2775" y="231.2" xlink:href="#tool-D27-pad-1078"/><use x="-2775" y="706.2" xlink:href="#tool-D27-pad-1078"/><use x="-2225" y="250" xlink:href="#tool-D28-pad-1079"/><use x="-2143.7" y="250" xlink:href="#tool-D28-pad-1079"/><use x="-2062.5" y="250" xlink:href="#tool-D28-pad-1079"/><use x="-1981.2" y="250" xlink:href="#tool-D28-pad-1079"/><use x="-1900" y="250" xlink:href="#tool-D28-pad-1079"/><use x="-1818.7" y="250" xlink:href="#tool-D28-pad-1079"/><use x="-1737.5" y="250" xlink:href="#tool-D28-pad-1079"/><use x="-1656.2" y="250" xlink:href="#tool-D28-pad-1079"/><use x="-1656.2" y="906.2" xlink:href="#tool-D28-pad-1079"/><use x="-1737.5" y="906.2" xlink:href="#tool-D28-pad-1079"/><use x="-1818.7" y="906.3" xlink:href="#tool-D28-pad-1079"/><use x="-1900" y="906.2" xlink:href="#tool-D28-pad-1079"/><use x="-1981.2" y="906.2" xlink:href="#tool-D28-pad-1079"/><use x="-2062.5" y="906.2" xlink:href="#tool-D28-pad-1079"/><use x="-2143.7" y="906.2" xlink:href="#tool-D28-pad-1079"/><use x="-2225" y="906.2" xlink:href="#tool-D28-pad-1079"/><use x="-675" y="956.2" xlink:href="#tool-D29-pad-1080"/><use x="-131.3" y="956.2" xlink:href="#tool-D29-pad-1080"/><use x="-256.3" y="956.2" xlink:href="#tool-D29-pad-1080"/><use x="-550" y="956.2" xlink:href="#tool-D29-pad-1080"/><use x="-675" y="62.5" xlink:href="#tool-D30-pad-1081"/><use x="-131.3" y="62.5" xlink:href="#tool-D30-pad-1081"/><use x="-825" y="750" xlink:href="#tool-D31-pad-1082"/><use x="-925" y="750" xlink:href="#tool-D31-pad-1082"/><use x="-1025" y="750" xlink:href="#tool-D31-pad-1082"/><use x="-1125" y="750" xlink:href="#tool-D31-pad-1082"/><use x="-1225" y="750" xlink:href="#tool-D31-pad-1082"/><use x="-1325" y="750" xlink:href="#tool-D31-pad-1082"/><use x="-1975" y="1175" xlink:href="#tool-D32-pad-1083"/><use x="-2075" y="1175" xlink:href="#tool-D32-pad-1083"/><use x="-2175" y="1175" xlink:href="#tool-D32-pad-1083"/><use x="-2275" y="1175" xlink:href="#tool-D32-pad-1083"/><use x="-256.3" y="1293.9" xlink:href="#tool-D34-pad-1084"/><use x="-256.3" y="1156.4" xlink:href="#tool-D34-pad-1084"/><use x="-2531.3" y="150" xlink:href="#tool-D23-pad-1074"/><use x="-2531.3" y="62.7" xlink:href="#tool-D23-pad-1074"/><use x="-2531.3" y="206.3" xlink:href="#tool-D23-pad-1074"/><use x="-2531.3" y="293.6" xlink:href="#tool-D23-pad-1074"/><use x="-1825" y="1262.5" xlink:href="#tool-D23-pad-1074"/><use x="-1825" y="1175.2" xlink:href="#tool-D23-pad-1074"/><use x="-2762.8" y="1268.9" xlink:href="#tool-D24-pad-1075"/><use x="-2675.5" y="1268.9" xlink:href="#tool-D24-pad-1075"/><use x="-2375" y="1175" xlink:href="#tool-D32-pad-1083"/><use x="-2475" y="1175" xlink:href="#tool-D32-pad-1083"/><use x="-1875.2" y="175" xlink:href="#tool-D23-pad-1074"/><use x="-1875.2" y="87.7" xlink:href="#tool-D23-pad-1074"/><use x="-1468.9" y="518.8" xlink:href="#tool-D32-pad-1083"/><use x="-1468.9" y="418.8" xlink:href="#tool-D32-pad-1083"/><use x="-1738.5" y="131.3" xlink:href="#tool-D24-pad-1075"/><use x="-1651.2" y="131.3" xlink:href="#tool-D24-pad-1075"/><use x="-1556.3" y="218.7" xlink:href="#tool-D23-pad-1074"/><use x="-1556.3" y="131.4" xlink:href="#tool-D23-pad-1074"/><use x="-2394" y="62.5" xlink:href="#tool-D32-pad-1083"/><use x="-1606.3" y="1250" xlink:href="#tool-D32-pad-1083"/><use x="-1468.9" y="831.3" xlink:href="#tool-D32-pad-1083"/><use x="-2650" y="187.5" xlink:href="#tool-D32-pad-1083"/><use x="-2650" y="62.5" xlink:href="#tool-D32-pad-1083"/><use x="-1981.5" y="1068.9" xlink:href="#tool-D23-pad-1074"/><use x="-1981.5" y="981.6" xlink:href="#tool-D23-pad-1074"/><use x="-2125" y="1056.3" xlink:href="#tool-D41-pad-1087"/><use x="-2037.7" y="1056.3" xlink:href="#tool-D41-pad-1087"/><use x="-2650" y="768.8" xlink:href="#tool-D32-pad-1083"/><use x="-2650" y="868.8" xlink:href="#tool-D32-pad-1083"/><use x="-2650" y="968.8" xlink:href="#tool-D32-pad-1083"/><use x="-2650" y="1068.8" xlink:href="#tool-D32-pad-1083"/><use x="-2650" y="1181.2" xlink:href="#tool-D24-pad-1075"/><use x="-2562.7" y="1181.2" xlink:href="#tool-D24-pad-1075"/><use x="-2225.2" y="1343.9" xlink:href="#tool-D23-pad-1074"/><use x="-2225.2" y="1256.6" xlink:href="#tool-D23-pad-1074"/><use x="-2394" y="200" xlink:href="#tool-D32-pad-1083"/><use x="-2075.2" y="1237.6" xlink:href="#tool-D35-pad-1085"/><use x="-2075.2" y="1372.9" xlink:href="#tool-D43-pad-1088"/><use x="-2075.2" y="1323.9" xlink:href="#tool-D44-pad-1089"/><use x="-1975.2" y="1237.6" xlink:href="#tool-D35-pad-1085"/><use x="-1975.2" y="1372.9" xlink:href="#tool-D43-pad-1088"/><use x="-1975.2" y="1323.9" xlink:href="#tool-D44-pad-1089"/><use x="-1718.9" y="1250.1" xlink:href="#tool-D32-pad-1083"/><path d="M -868.8 1125 L -1012.5 1125 L -1012.5 956.3 L -868.8 956.3 L -868.8 1125 Z"/><path d="M -787.5 1125 L -850 1125 L -850 956.3 L -787.5 956.3 L -787.5 1125 Z"/><path d="M -250 725 L -375 725 L -375 600 L -250 600 L -250 725 Z"/><path d="M -250 537.5 L -375 537.5 L -375 412.5 L -250 412.5 L -250 537.5 Z"/><path d="M -250 350 L -375 350 L -375 225 L -250 225 L -250 350 Z"/><path d="M -250 162.5 L -375 162.5 L -375 37.5 L -250 37.5 L -250 162.5 Z"/><path d="M -437.5 725 L -562.5 725 L -562.5 600 L -437.5 600 L -437.5 725 Z"/><path d="M -437.5 537.5 L -562.5 537.5 L -562.5 412.5 L -437.5 412.5 L -437.5 537.5 Z"/><path d="M -437.5 350 L -562.5 350 L -562.5 225 L -437.5 225 L -437.5 350 Z"/><path d="M -437.5 162.5 L -562.5 162.5 L -562.5 37.5 L -437.5 37.5 L -437.5 162.5 Z"/><path d="M -812.5 537.5 L -937.5 537.5 L -937.5 412.5 L -812.5 412.5 L -812.5 537.5 Z"/><path d="M -812.5 350 L -937.5 350 L -937.5 225 L -812.5 225 L -812.5 350 Z"/><path d="M -812.5 162.5 L -937.5 162.5 L -937.5 37.5 L -812.5 37.5 L -812.5 162.5 Z"/><path d="M -1000 537.5 L -1125 537.5 L -1125 412.5 L -1000 412.5 L -1000 537.5 Z"/><path d="M -1000 350 L -1125 350 L -1125 225 L -1000 225 L -1000 350 Z"/><path d="M -1000 162.5 L -1125 162.5 L -1125 37.5 L -1000 37.5 L -1000 162.5 Z"/><path d="M -1187.5 537.5 L -1312.5 537.5 L -1312.5 412.5 L -1187.5 412.5 L -1187.5 537.5 Z"/><path d="M -1187.5 350 L -1312.5 350 L -1312.5 225 L -1187.5 225 L -1187.5 350 Z"/><path d="M -1187.5 162.5 L -1312.5 162.5 L -1312.5 37.5 L -1187.5 37.5 L -1187.5 162.5 Z"/><path d="M -625 537.5 L -750 537.5 L -750 412.5 L -625 412.5 L -625 537.5 Z"/><path d="M -625 350 L -750 350 L -750 225 L -625 225 L -625 350 Z"/><path d="M -293.8 1200.1 L -587.6 1200.1 L -587.6 1112.6 L -293.8 1112.6 L -293.8 1200.1 Z"/><path d="M -293.8 1337.6 L -587.6 1337.6 L -587.6 1250.1 L -293.8 1250.1 L -293.8 1337.6 Z"/><path stroke-width="17" fill="none" d="M -1428.2 1301.8 L -1428.2 1191.3 L -1380.8 1191.3 L -1365 1196.6 L -1359.8 1201.9 L -1354.5 1212.3 L -1354.5 1228.1 L -1359.8 1238.7 L -1365 1243.9 L -1380.8 1249.2 L -1365 1254.5 L -1359.8 1259.7 L -1354.5 1270.2 L -1354.5 1280.8 L -1359.8 1291.2 L -1365 1296.6 L -1380.8 1301.8 L -1428.2 1301.8 M -1428.2 1249.2 L -1380.8 1249.2 M -1320.6 1301.8 L -1315.3 1296.6 L -1310 1301.8 L -1315.3 1307.1 L -1320.6 1301.8 M -1315.3 1265 L -1315.3 1191.3 M -1260.2 1301.8 L -1260.2 1212.3 L -1255 1196.6 L -1244.4 1191.3 L -1233.9 1191.3 M -1276 1265 L -1239.2 1265 M -1142.1 1249.2 L -1147.3 1259.7 L -1163.1 1265 L -1178.9 1265 L -1194.7 1259.7 L -1200 1249.2 L -1194.7 1238.7 L -1184.2 1233.3 L -1157.9 1228.1 L -1147.3 1222.9 L -1142.1 1212.3 L -1142.1 1207.1 L -1147.3 1196.6 L -1163.1 1191.3 L -1178.9 1191.3 L -1194.7 1196.6 L -1200 1207.1 M -1102.8 1265 L -1071.3 1191.3 L -1081.7 1170.2 L -1092.3 1159.7 L -1102.8 1154.4 L -1108.1 1154.4 M -1039.7 1265 L -1071.3 1191.3 M -1005.7 1301.8 L -1005.7 1191.3 L -958.3 1191.3 L -942.5 1196.6 L -937.3 1201.9 L -932 1212.3 L -932 1228.1 L -937.3 1238.7 L -942.5 1243.9 L -958.3 1249.2 L -942.5 1254.5 L -937.3 1259.7 L -932 1270.2 L -932 1280.8 L -937.3 1291.2 L -942.5 1296.6 L -958.3 1301.8 L -1005.7 1301.8 M -1005.7 1249.2 L -958.3 1249.2 M -898.1 1301.8 L -892.8 1296.6 L -887.5 1301.8 L -892.8 1307.1 L -898.1 1301.8 M -892.8 1265 L -892.8 1191.3 M -837.7 1301.8 L -837.7 1212.3 L -832.5 1196.6 L -821.9 1191.3 L -811.4 1191.3 M -853.5 1265 L -816.7 1265 M -719.6 1249.2 L -724.8 1259.7 L -740.6 1265 L -756.4 1265 L -772.2 1259.7 L -777.5 1249.2 L -772.2 1238.7 L -761.7 1233.3 L -735.4 1228.1 L -724.8 1222.9 L -719.6 1212.3 L -719.6 1207.1 L -724.8 1196.6 L -740.6 1191.3 L -756.4 1191.3 L -772.2 1196.6 L -777.5 1207.1 M -1536.9 1065.4"/><path stroke-width="15.4" fill="none" d="M -1536.9 1065.4 L -1508.2 998.4 L -1479.6 1065.4 M -1419.9 1098.8 L -1434.3 1094.1 L -1443.9 1079.7 L -1448.7 1055.8 L -1448.7 1041.4 L -1443.9 1017.6 L -1434.3 1003.2 L -1419.9 998.4 L -1410.4 998.4 L -1396.1 1003.2 L -1386.6 1017.6 L -1381.7 1041.4 L -1381.7 1055.8 L -1386.6 1079.7 L -1396.1 1094.1 L -1410.4 1098.8 L -1419.9 1098.8 M -1386.6 1079.7 L -1443.9 1017.6 M -1346.1 1008.1 L -1350.8 1003.2 L -1346.1 998.4 L -1341.2 1003.2 L -1346.1 1008.1 M -1300.7 1098.8 L -1248.2 1098.8 L -1276.8 1060.6 L -1262.5 1060.6 L -1253 1055.8 L -1248.2 1051.1 L -1243.3 1036.7 L -1243.3 1027.2 L -1248.2 1012.8 L -1257.7 1003.2 L -1272.1 998.4 L -1286.5 998.4 L -1300.7 1003.2 L -1305.5 1008.1 L -1310.3 1017.6 M -1207.7 1008.1 L -1212.5 1003.2 L -1207.7 998.4 L -1202.8 1003.2 L -1207.7 1008.1 M -1172 1079.7 L -1162.3 1084.6 L -1148 1098.8 L -1148 998.4 M -1088.4 1098.8 L -1102.7 1094.1 L -1112.3 1079.7 L -1117.1 1055.8 L -1117.1 1041.4 L -1112.3 1017.6 L -1102.7 1003.2 L -1088.4 998.4 L -1078.9 998.4 L -1064.5 1003.2 L -1055 1017.6 L -1050.1 1041.4 L -1050.1 1055.8 L -1055 1079.7 L -1064.5 1094.1 L -1078.9 1098.8 L -1088.4 1098.8 M -1055 1079.7 L -1112.3 1017.6 M -654.1 1320.7"/><path stroke-width="9.3" fill="none" d="M -654.1 1320.7 L -654.1 1269 M -679.9 1294.8 L -628.2 1294.8 M -673.9 1148.9"/><path stroke-width="10.8" fill="none" d="M -673.9 1148.9 L -635.3 1148.9"/></g></svg>